<?xml version="1.0" standalone="no"?>
<!DOCTYPE svg PUBLIC "-//W3C//DTD SVG 20010904//EN"
 "http://www.w3.org/TR/2001/REC-SVG-20010904/DTD/svg10.dtd">
<svg version="1.0" xmlns="http://www.w3.org/2000/svg"
 width="960.000000pt" height="323.000000pt" viewBox="0 0 960.000000 323.000000"
 preserveAspectRatio="xMidYMid meet">
<metadata>
Created by potrace 1.16, written by Peter Selinger 2001-2019
</metadata>
<g transform="translate(0.000000,323.000000) scale(0.100000,-0.100000)"
fill="#000000" stroke="none">
<path d="M0 1615 l0 -1615 4800 0 4800 0 0 1615 0 1615 -4800 0 -4800 0 0
-1615z m3894 656 c52 -44 67 -89 96 -271 5 -36 13 -78 16 -95 6 -29 6 -29 -9
-10 -13 17 -28 20 -99 21 -46 0 -93 5 -105 12 -12 7 -30 12 -40 12 -10 0 -35
14 -57 30 -21 16 -50 32 -65 35 -15 3 -32 14 -39 25 -10 16 -8 20 8 25 10 3
35 3 54 0 51 -10 76 1 76 34 0 16 -7 34 -15 41 -8 7 -15 17 -15 23 0 6 -7 18
-14 26 -17 18 -14 24 31 65 33 29 116 58 143 48 8 -3 23 -12 34 -21z m-126
-498 c6 -16 14 -40 18 -55 3 -15 12 -32 20 -39 8 -6 14 -17 14 -24 0 -7 7 -18
15 -25 25 -21 19 -50 -10 -50 -32 0 -31 -5 3 -35 l27 -24 -20 -20 c-19 -19
-25 -20 -85 -10 -79 12 -94 24 -42 32 21 4 47 16 57 27 16 18 17 24 6 42 -15
24 -50 153 -51 186 0 33 35 29 48 -5z m-18 -330 c0 -21 3 -24 12 -15 16 16 45
15 51 -2 3 -7 -1 -25 -8 -40 -8 -15 -22 -54 -31 -87 -9 -33 -26 -71 -36 -85
-19 -24 -61 -33 -72 -15 -4 5 -29 15 -56 22 -28 7 -56 19 -62 27 -18 21 16 46
80 57 51 9 57 12 57 35 0 21 -6 26 -38 31 -21 3 -43 12 -50 19 -10 10 -7 11
13 7 14 -3 41 -2 60 3 20 4 26 8 14 9 -11 1 -42 8 -69 17 -38 14 -44 19 -31
26 9 5 30 7 45 3 17 -3 32 -2 36 4 3 6 24 11 46 11 36 0 39 -2 39 -27z"/>
</g>
</svg>
